<?xml version="1.0" encoding="UTF-8"?><svg id="Layer_1" xmlns="http://www.w3.org/2000/svg" viewBox="0 0 289.01 276.02"><defs><style>.cls-1{fill:#646cff;stroke-width:0px;}</style></defs><path class="cls-1" d="m196.52,30.36v49.13h62.14v166.18H92.48v-49.13H30.35V30.36h166.18M199.64.02H27.23C12.19.02,0,12.21,0,27.25v172.41c0,15.04,12.19,27.23,27.23,27.23h34.91v21.9c0,15.04,12.19,27.23,27.23,27.23h172.41c15.04,0,27.23-12.19,27.23-27.23V76.38c0-15.04-12.19-27.23-27.23-27.23h-34.91v-21.9C226.87,12.21,214.68.02,199.64.02h0Z"/><path class="cls-1" d="m196.82,30.35v166.18H30.65V30.35h166.18m3.12-30.35H27.53C12.49,0,.3,12.19.3,27.23v172.41c0,15.04,12.19,27.23,27.23,27.23h172.41c15.04,0,27.23-12.19,27.23-27.23V27.23c0-15.04-12.19-27.23-27.23-27.23h0Z"/></svg>